<?xml version="1.0" standalone="no"?>
<!DOCTYPE svg PUBLIC "-//W3C//DTD SVG 20010904//EN"
 "http://www.w3.org/TR/2001/REC-SVG-20010904/DTD/svg10.dtd">
<svg version="1.0" xmlns="http://www.w3.org/2000/svg"
 width="256.000000pt" height="256.000000pt" viewBox="0 0 256.000000 256.000000"
 preserveAspectRatio="xMidYMid meet">

<g transform="translate(0.000000,256.000000) scale(0.100000,-0.100000)"
fill="#000000" stroke="none">
<path d="M151 2548 c-63 -14 -125 -79 -140 -147 -7 -36 -11 -290 -11 -806 l0
-755 1280 0 1280 0 0 755 c0 516 -4 770 -11 806 -16 72 -76 132 -148 148 -67
14 -2185 14 -2250 -1z m1815 -172 c80 -37 134 -122 134 -211 l0 -45 69 0 c47
0 72 -4 80 -14 12 -15 111 -823 111 -908 0 -78 -43 -144 -117 -182 -28 -14
-79 -16 -382 -16 -222 0 -360 4 -378 11 -31 11 -89 63 -105 94 -28 50 -26 93
26 540 29 248 56 457 60 463 4 7 34 12 76 12 l68 0 7 53 c9 68 25 105 64 149
70 80 186 101 287 54z m-1571 -456 l0 -35 -95 0 c-92 0 -95 1 -98 23 -7 49 1
53 100 50 l93 -3 0 -35z m760 0 l0 -35 -335 0 -335 0 -3 23 c-8 54 -19 52 340
50 l333 -3 0 -35z m-760 -200 l0 -35 -95 0 c-92 0 -95 1 -98 23 -7 49 1 53
100 50 l93 -3 0 -35z m760 0 l0 -35 -335 0 -335 0 -3 23 c-8 54 -19 52 340 50
l333 -3 0 -35z m-760 -200 l0 -35 -95 0 c-92 0 -95 1 -98 23 -7 49 1 53 100
50 l93 -3 0 -35z m760 0 l0 -35 -335 0 -335 0 -3 23 c-8 54 -19 52 340 50
l333 -3 0 -35z m-760 -200 l0 -35 -95 0 c-92 0 -95 1 -98 23 -7 49 1 53 100
50 l93 -3 0 -35z m760 0 l0 -35 -335 0 -335 0 -3 23 c-8 54 -19 52 340 50
l333 -3 0 -35z"/>
<path d="M1813 2309 c-62 -18 -113 -93 -113 -166 0 -23 1 -23 155 -23 l155 0
0 44 c0 99 -100 173 -197 145z"/>
</g>
</svg>
